<?xml version="1.0" encoding="UTF-8" standalone="no"?>
<!-- Sure Cuts A Lot -->

<svg
   xmlns:scal="http://www.craftedge.com/namespaces/surecutsalot"
   xmlns:dc="http://purl.org/dc/elements/1.1/"
   xmlns:cc="http://creativecommons.org/ns#"
   xmlns:rdf="http://www.w3.org/1999/02/22-rdf-syntax-ns#"
   xmlns:svg="http://www.w3.org/2000/svg"
   xmlns="http://www.w3.org/2000/svg"
   xmlns:sodipodi="http://sodipodi.sourceforge.net/DTD/sodipodi-0.dtd"
   xmlns:inkscape="http://www.inkscape.org/namespaces/inkscape"
   version="1.1"
   scal:dpi="72"
   x="0px"
   y="0px"
   width="600.59937"
   height="270.01895"
   viewbox="0 0 100 100"
   xml:space="preserve"
   fill="white"
   id="svg4"
   sodipodi:docname="star_trek_starship_enterprise_.svg"
   inkscape:version="0.48.5 r10040"><metadata
     id="metadata10"><rdf:RDF><cc:Work
         rdf:about=""><dc:format>image/svg+xml</dc:format><dc:type
           rdf:resource="http://purl.org/dc/dcmitype/StillImage" /></cc:Work></rdf:RDF></metadata><defs
     id="defs8" /><sodipodi:namedview
     pagecolor="#ffffff"
     bordercolor="#666666"
     borderopacity="1"
     objecttolerance="10"
     gridtolerance="10"
     guidetolerance="10"
     inkscape:pageopacity="0"
     inkscape:pageshadow="2"
     inkscape:window-width="640"
     inkscape:window-height="480"
     id="namedview6"
     showgrid="false"
     inkscape:zoom="0.27314815"
     inkscape:cx="403.36854"
     inkscape:cy="-46.528155"
     inkscape:window-x="0"
     inkscape:window-y="0"
     inkscape:window-maximized="0"
     inkscape:current-layer="svg4" /><g
     id="Star-Trek-Starship-Enterprise-Stencil-660x510.jpg"
     transform="translate(-28.63146,-115.45286)"><path
       id="&lt;Merge&gt;"
       style="fill:#ffffff;stroke:#ffffff"
       d="m 378.911,236.078 c -1.913,-1.577 -4.703,-5.117 -6.199,-7.866 -10.623,-19.519 3.237,-42.977 38.156,-64.576 54.624,-33.789 138.253,-54.332 186.132,-45.721 24.307,4.371 33.886,12.255 31.33,25.788 l -0.83,4.394 -3.5,-2.627 c -5.64,-4.234 -12.12,-7.193 -21.098,-9.634 -7.54,-2.049 -10.659,-2.286 -30.402,-2.31 -22.077,-0.026 -26.573,0.404 -48.5,4.642 -38.799,7.498 -78.386,22.528 -105,39.867 -13.718,8.938 -29.735,25.163 -34.354,34.801 -4.598,9.594 -5.252,13.822 -3.129,20.214 0.928,2.794 1.503,5.263 1.279,5.487 -0.224,0.224 -1.972,-0.882 -3.885,-2.459 z m 63.416,90.98 c -5.852,-3.568 -14.445,-16.813 -18.729,-28.868 -3.865,-10.874 -3.48,-23.566 0.802,-26.425 1.543,-1.03 6.4,-0.942 8.448,0.153 1.16,0.621 3.576,0.291 7.46,-1.021 4.003,-1.351 6.284,-1.65 7.522,-0.988 1.083,0.58 2.343,0.594 3.224,0.037 5.083,-3.216 12.181,2.474 17.818,14.286 4.073,8.534 4.201,14.039 0.417,17.988 -2.126,2.22 -2.652,3.64 -2.438,6.594 0.252,3.494 -0.305,4.354 -7.765,11.975 -8.841,9.033 -10.938,9.818 -16.759,6.269 z M 162,366.43 c -3.04,-0.928 -5.798,-2.815 -8.5,-5.818 -2.436,-2.707 -5.342,-4.789 -7.432,-5.325 -1.888,-0.483 -3.581,-1.325 -3.763,-1.871 -0.182,-0.546 3.806,-3 8.861,-5.454 11.032,-5.355 14.473,-8.042 15.337,-11.975 0.833,-3.794 2.608,-4.972 22.509,-14.933 15.085,-7.55 17.076,-8.285 23.034,-8.497 6.131,-0.218 7.707,-0.847 26.247,-10.475 10.849,-5.634 20.141,-10.094 20.65,-9.912 1.446,0.516 17.141,22.079 16.804,23.088 -0.45,1.352 -1.401,1.837 -55.351,28.23 -27.557,13.482 -50.957,24.468 -52,24.413 -1.043,-0.054 -3.921,-0.716 -6.396,-1.471 z m 101.601,17.734 c -0.284,-0.46 -0.451,-4.623 -0.371,-9.25 0.105,-6.135 -0.305,-9.267 -1.516,-11.563 -2.007,-3.805 -2.159,-3.652 9.286,-9.364 6.805,-3.396 23.229,-12.381 24.853,-13.596 0.293,-0.219 -48.474,-67.965 -50.952,-70.782 -0.885,-1.007 -6.522,1.435 -64.401,27.898 -22.55,10.311 -45.275,20.654 -50.5,22.986 -5.225,2.331 -14.675,6.611 -21,9.51 -36.6474,16.8 -37.4107,17.112 -39.9753,16.374 -1.3886,-0.4 -4.3632,-0.773 -6.6102,-0.829 -5.1717,-0.13 -8.8557,-2.532 -11.3355,-7.393 l -1.9467,-3.816 -9.6543,-1.817 C 29.182,330.584 27.3281,329.213 30.6111,325.964 33.8355,322.774 107.622,286 110.799,286 c 1.596,0 4.281,0.481 5.966,1.068 2.879,1.004 5.38,-0.137 41.4,-18.884 43.53,-22.655 77.522,-40.417 121.942,-63.719 21.295,-11.171 27.006,-12.903 34.441,-10.449 4.777,1.577 11.163,7.356 13.009,11.774 3.353,8.025 1.261,14.44 -7.167,21.977 -3.24,2.896 -6.79,6.105 -7.89,7.13 -1.1,1.025 -11.793,6.753 -23.763,12.729 -11.969,5.976 -21.589,11.317 -21.377,11.87 0.212,0.552 4.872,7.304 10.354,15.004 5.483,7.7 15.229,21.425 21.658,30.5 6.43,9.075 12.513,17.625 13.519,19 l 1.829,2.5 1.201,-9 c 0.66,-4.95 1.663,-11.398 2.227,-14.329 0.565,-2.931 0.802,-5.554 0.528,-5.828 -0.274,-0.274 -4.16,1.111 -8.636,3.079 C 305.565,302.39 301.527,304 301.067,304 300.032,304 284,280.041 284,278.495 c 0,-0.615 6.413,-4.873 14.25,-9.463 14.26,-8.351 22.606,-13.249 39,-22.888 4.813,-2.829 12.462,-7.326 17,-9.992 4.538,-2.666 9.848,-5.808 11.801,-6.981 l 3.55,-2.133 3.773,5.053 c 2.075,2.78 5.767,6.459 8.205,8.177 3.044,2.146 4.267,3.641 3.907,4.776 -0.288,0.908 -2.737,7.006 -5.442,13.551 -4.386,10.613 -5.222,11.964 -7.731,12.495 -2.044,0.433 -28.492,13.033 -29.997,14.291 -0.101,0.084 -0.889,5.321 -1.751,11.636 -0.861,6.316 -1.862,13.48 -2.222,15.92 l -0.656,4.437 4.406,-2.543 c 2.424,-1.398 8.232,-4.668 12.907,-7.266 l 8.5,-4.724 7.883,-19.17 c 4.335,-10.544 10.099,-24.474 12.809,-30.957 l 4.926,-11.785 -2.559,-3.042 c -3.216,-3.821 -3.914,-6.591 -3.356,-13.319 0.71,-8.559 5.008,-15.803 15.784,-26.598 19.822,-19.856 51.328,-36.432 93.12,-48.993 44.924,-13.503 91.003,-17.207 115.818,-9.311 8.671,2.759 18.221,9.136 18.891,12.615 0.531,2.762 -4.828,13.775 -10.326,21.219 -18.702,25.321 -82.804,56.02 -144.99,69.435 -5.5,1.186 -11.575,2.549 -13.5,3.027 -1.925,0.479 -5.525,1.159 -8,1.512 -2.475,0.353 -6.883,1.142 -9.796,1.753 l -5.296,1.112 -3.592,6.58 c -1.976,3.62 -5.336,9.428 -7.467,12.908 -2.13,3.481 -4.284,8.156 -4.786,10.39 -2.756,12.264 8.841,38.822 20.558,47.081 2.408,1.698 4.379,3.406 4.379,3.797 0,0.39 -1.238,1.168 -2.75,1.728 -1.513,0.56 -7.025,2.8 -12.25,4.978 -25.406,10.59 -37.033,15.367 -68,27.937 l -33.5,13.599 -15.5,0.218 c -14.357,0.202 -27.032,1.755 -35.993,4.41 -4.2,1.244 -11.686,1.364 -12.406,0.199 z"
       inkscape:connector-curvature="0" /></g></svg>